<?xml version="1.0" encoding="UTF-8"?>
<svg id="Layer_2" data-name="Layer 2" xmlns="http://www.w3.org/2000/svg" viewBox="0 0 12 12">
  <defs>
    <style>
      .cls-1 {
        fill: #000;
        stroke-width: 0px;
      }

      .cls-2 {
        stroke-width: .5px;
      }

      .cls-2, .cls-3 {
        fill: none;
        stroke: #000;
        stroke-miterlimit: 10;
      }

      .cls-3 {
        stroke-linecap: round;
        stroke-width: .75px;
      }
    </style>
  </defs>
  <g id="Layer_2-2" data-name="Layer 2">
    <g>
      <path class="cls-1" d="M6,.5c3.03,0,5.5,2.47,5.5,5.5s-2.47,5.5-5.5,5.5S.5,9.03.5,6,2.97.5,6,.5M6,0C2.69,0,0,2.69,0,6s2.69,6,6,6,6-2.69,6-6S9.31,0,6,0h0Z"/>
      <g>
        <line class="cls-3" x1="7.88" y1="4.5" x2="8.62" y2="4.5"/>
        <line class="cls-3" x1="3.38" y1="4.5" x2="4.12" y2="4.5"/>
        <line class="cls-3" x1="4.88" y1="7.5" x2="7.12" y2="7.5"/>
      </g>
      <path class="cls-2" d="M1.39.62c.05-.09.17-.09.22,0,.38.68,1.56,2.96.79,3.73h0c-.5.5-1.31.5-1.81,0h0c-.77-.77.41-3.04.79-3.73Z"/>
    </g>
  </g>
</svg>