<?xml version="1.0" encoding="UTF-8"?>
<svg id="Layer_2" data-name="Layer 2" xmlns="http://www.w3.org/2000/svg" viewBox="0 0 25.57 25.57">
  <defs>
    <style>
      .cls-1 {
        fill: #edf2f4;
        stroke: #edf2f4;
        stroke-miterlimit: 10;
        stroke-width: .5px;
      }

      .cls-2 {
        fill: #202c31;
        stroke-width: 0px;
      }
    </style>
  </defs>
  <g id="Layer_1-2" data-name="Layer 1">
    <g>
      <circle class="cls-1" cx="12.79" cy="12.79" r="12.54"/>
      <path class="cls-2" d="M12.79,1.41c-.48,0-.88.39-.88.88v6.12c0,.48.39.88.88.88,1.93,0,3.5,1.57,3.5,3.5s-1.57,3.5-3.5,3.5-3.5-1.57-3.5-3.5c0-.61.16-1.22.47-1.75.24-.42.1-.95-.32-1.2,0,0,0,0,0,0l-5.3-3.06c-.42-.24-.95-.1-1.2.32,0,0,0,0,0,0C-.21,12.54,1.66,19.5,7.1,22.64c5.44,3.14,12.4,1.28,15.54-4.16s1.28-12.4-4.16-15.54c-1.73-1-3.69-1.52-5.69-1.52ZM4.05,8.75l3.82,2.21c-.22.59-.33,1.21-.33,1.83,0,.17,0,.33.02.49l-4.26,1.15c-.33-1.92-.07-3.9.74-5.68ZM3.75,16.11l4.27-1.14c.72,1.58,2.18,2.7,3.89,2.99v4.41c-3.7-.34-6.87-2.78-8.16-6.26ZM13.66,22.37v-4.41c2.86-.48,4.78-3.19,4.3-6.05-.37-2.2-2.1-3.93-4.3-4.3V3.2c5.29.48,9.19,5.17,8.71,10.46-.42,4.62-4.09,8.29-8.71,8.71Z"/>
    </g>
  </g>
</svg>