<?xml version="1.0" encoding="UTF-8"?>
<svg id="Layer_1" data-name="Layer 1" xmlns="http://www.w3.org/2000/svg" version="1.1" viewBox="0 0 28 28">
  <defs>
    <style>
      .cls-1 {
        fill: #edf2f4;
        stroke-width: 0px;
      }
    </style>
  </defs>
  <path class="cls-1" d="M14,2.6c-.5,0-.9.4-.9.9v6.1c0,.5.4.9.9.9,1.9,0,3.5,1.6,3.5,3.5s-1.6,3.5-3.5,3.5-3.5-1.6-3.5-3.5.2-1.2.5-1.7c.2-.4,0-1-.3-1.2h0l-5.3-3.1c-.4-.2-1,0-1.2.3h0c-3.1,5.4-1.3,12.4,4.2,15.5,5.4,3.1,12.4,1.3,15.5-4.2s1.3-12.4-4.2-15.5c-1.7-1-3.7-1.5-5.7-1.5ZM5.3,10l3.8,2.2c-.2.6-.3,1.2-.3,1.8v.5l-4.3,1.1c-.3-1.9,0-3.9.7-5.7h0ZM5,17.3l4.3-1.1c.7,1.6,2.2,2.7,3.9,3v4.4c-3.7-.3-6.9-2.8-8.2-6.3ZM14.9,23.6v-4.4c2.9-.5,4.8-3.2,4.3-6.1-.4-2.2-2.1-3.9-4.3-4.3v-4.4c5.3.5,9.2,5.2,8.7,10.5-.4,4.6-4.1,8.3-8.7,8.7Z"/>
</svg>