<?xml version="1.0" encoding="UTF-8"?>
<svg id="Layer_1" data-name="Layer 1" xmlns="http://www.w3.org/2000/svg" version="1.1" viewBox="0 0 28 28">
  <defs>
    <style>
      .cls-1 {
        fill: #0c5bc1;
        stroke-width: 0px;
      }
    </style>
  </defs>
  <path class="cls-1" d="M14,2.6C7.7,2.6,2.6,7.7,2.6,14s5.1,11.4,11.4,11.4,11.4-5.1,11.4-11.4c0-6.3-5.1-11.4-11.4-11.4ZM14,23.6c-5.3,0-9.6-4.3-9.6-9.6S8.7,4.4,14,4.4s9.6,4.3,9.6,9.6c0,5.3-4.3,9.6-9.6,9.6ZM8.8,11.8c0-.7.6-1.3,1.3-1.3s1.3.6,1.3,1.3-.6,1.3-1.3,1.3-1.3-.6-1.3-1.3ZM19.2,11.8c0,.7-.6,1.3-1.3,1.3s-1.3-.6-1.3-1.3.6-1.3,1.3-1.3,1.3.6,1.3,1.3ZM19.1,18.8c.3.4.1.9-.3,1.2-.4.3-.9.1-1.2-.3,0,0,0,0,0,0-.8-1.4-2.1-2.2-3.6-2.2s-2.8.8-3.6,2.2c-.2.4-.8.6-1.2.4-.4-.2-.6-.8-.4-1.2,0,0,0,0,0,0,1.1-1.9,3-3.1,5.1-3.1s4,1.1,5.1,3.1Z"/>
</svg>