<?xml version="1.0" encoding="UTF-8"?>
<svg id="Layer_1" data-name="Layer 1" xmlns="http://www.w3.org/2000/svg" version="1.1" viewBox="0 0 28 28">
  <defs>
    <style>
      .cls-1 {
        fill: #266813;
        stroke-width: 0px;
      }
    </style>
  </defs>
  <path class="cls-1" d="M14,2.6C7.7,2.6,2.6,7.7,2.6,14s5.1,11.4,11.4,11.4,11.4-5.1,11.4-11.4c0-6.3-5.1-11.4-11.4-11.4ZM14,23.6c-5.3,0-9.6-4.3-9.6-9.6S8.7,4.4,14,4.4s9.6,4.3,9.6,9.6c0,5.3-4.3,9.6-9.6,9.6ZM8.8,11.8c0-.7.6-1.3,1.3-1.3s1.3.6,1.3,1.3-.6,1.3-1.3,1.3-1.3-.6-1.3-1.3ZM16.6,11.8c0-.7.6-1.3,1.3-1.3s1.3.6,1.3,1.3-.6,1.3-1.3,1.3-1.3-.6-1.3-1.3ZM20.1,18.4c0,.5-.4.9-.9.9-1.1,0-1.6-.7-2-1.2-.3-.4-.4-.5-.6-.5s-.3,0-.6.5c-.4.5-.9,1.2-2,1.2s-1.6-.7-2-1.2c-.3-.4-.4-.5-.6-.5s-.3,0-.6.5c-.4.5-.9,1.2-2,1.2s-.9-.4-.9-.9.4-.9.9-.9.3,0,.6-.5c.4-.5.9-1.2,2-1.2s1.6.7,2,1.2c.3.4.4.5.6.5s.3,0,.6-.5c.4-.5.9-1.2,2-1.2s1.6.7,2,1.2c.3.4.4.5.6.5.5,0,.9.4.9.9Z"/>
</svg>