<?xml version="1.0" encoding="UTF-8"?>
<svg id="Layer_1" data-name="Layer 1" xmlns="http://www.w3.org/2000/svg" version="1.1" viewBox="0 0 28 28">
  <defs>
    <style>
      .cls-1 {
        fill: #ac0808;
        stroke-width: 0px;
      }
    </style>
  </defs>
  <path class="cls-1" d="M10.1,16.6c-.7,0-1.3-.6-1.3-1.3s.6-1.3,1.3-1.3,1.3.6,1.3,1.3-.6,1.3-1.3,1.3ZM17.9,14c-.7,0-1.3.6-1.3,1.3s.6,1.3,1.3,1.3,1.3-.6,1.3-1.3-.6-1.3-1.3-1.3ZM25.4,14c0,6.3-5.1,11.4-11.4,11.4S2.6,20.3,2.6,14,7.7,2.6,14,2.6c6.3,0,11.4,5.1,11.4,11.4ZM23.6,14c0-5.3-4.3-9.6-9.6-9.6S4.4,8.7,4.4,14s4.3,9.6,9.6,9.6c5.3,0,9.6-4.3,9.6-9.6ZM18.8,8.9l-4.8,3.2-4.8-3.2c-.4-.3-.9-.2-1.2.2s-.2.9.2,1.2l5.2,3.5c.3.2.7.2,1,0l5.2-3.5c.4-.3.5-.8.2-1.2-.3-.4-.8-.5-1.2-.2h0ZM17.1,19.4c-.9-.6-1.8-1-3.1-1s-2.2.4-3.1,1c-.4.3-.5.8-.2,1.2.3.4.8.5,1.2.2.7-.5,1.3-.7,2.1-.7s1.4.3,2.1.7c.4.3.9.2,1.2-.2.3-.4.2-.9-.2-1.2,0,0,0,0,0,0Z"/>
</svg>