<?xml version="1.0" encoding="UTF-8"?>
<svg id="Layer_1" data-name="Layer 1" xmlns="http://www.w3.org/2000/svg" version="1.1" viewBox="0 0 28 28">
  <defs>
    <style>
      .cls-1 {
        fill: #6d6d6d;
        stroke-width: 0px;
      }
    </style>
  </defs>
  <path class="cls-1" d="M19.2,15.3c0,.7-.6,1.3-1.3,1.3s-1.3-.6-1.3-1.3.6-1.3,1.3-1.3,1.3.6,1.3,1.3ZM14,10.1c0-.7-.6-1.3-1.3-1.3s-1.3.6-1.3,1.3.6,1.3,1.3,1.3,1.3-.6,1.3-1.3ZM22,5.9c-4.5-4.4-11.7-4.3-16.1.2-4.1,4.3-4.3,11-.4,15.5.3.4.9.4,1.2,0,.4-.3.4-.9,0-1.2,0,0,0,0,0,0-3.5-4-3.2-10,.8-13.6,4-3.5,10-3.2,13.6.8,3.3,3.7,3.3,9.2,0,12.8-.3.4-.3.9,0,1.2.4.3.9.3,1.2,0,4-4.5,3.8-11.4-.5-15.7ZM16.6,18.4h-1.8c-2.4,0-5.2-2-5.2-4.4,0-.2,0-.5,0-.7,0-.5-.2-.9-.7-1-.5,0-.9.2-1,.7,0,0,0,0,0,0,0,.3,0,.7,0,1,0,1.6.8,3.2,2.3,4.4,1.4,1.1,3.1,1.7,4.7,1.7h1.8c.5,0,.9.4.9.9s-.4.9-.9.9h-6.1c-1.4,0-2.6,1.2-2.6,2.6s1.2,2.6,2.6,2.6.9-.4.9-.9-.4-.9-.9-.9-.9-.4-.9-.9.4-.9.9-.9h6.1c1.4,0,2.6-1.2,2.6-2.6s-1.2-2.6-2.6-2.6Z"/>
</svg>