<?xml version="1.0" encoding="UTF-8"?>
<svg id="Layer_2" data-name="Layer 2" xmlns="http://www.w3.org/2000/svg" version="1.1" viewBox="0 0 22.8 22.8">
  <defs>
    <style>
      .cls-1 {
        fill: #078cb3;
        stroke-width: 0px;
      }
    </style>
  </defs>
  <g id="Layer_1-2" data-name="Layer 1-2">
    <path class="cls-1" d="M11.4,0C5.1,0,0,5.1,0,11.4s5.1,11.4,11.4,11.4,11.4-5.1,11.4-11.4c0-6.3-5.1-11.4-11.4-11.4ZM11.4,21c-5.3,0-9.6-4.3-9.6-9.6S6.1,1.8,11.4,1.8s9.6,4.3,9.6,9.6-4.3,9.6-9.6,9.6h0ZM6.1,9.2c0-.7.6-1.3,1.3-1.3s1.3.6,1.3,1.3-.6,1.3-1.3,1.3-1.3-.6-1.3-1.3ZM16.6,9.2c0,.7-.6,1.3-1.3,1.3s-1.3-.6-1.3-1.3.6-1.3,1.3-1.3,1.3.6,1.3,1.3ZM13.4,14.4c0,1.1-.9,2-2,2s-2-.9-2-2,.9-2,2-2,2,.9,2,2Z"/>
  </g>
</svg>