<?xml version="1.0" encoding="UTF-8"?>
<svg id="Layer_2" data-name="Layer 2" xmlns="http://www.w3.org/2000/svg" viewBox="0 0 22.75 22.75">
  <defs>
    <style>
      .cls-1 {
        fill: #000;
        stroke-width: 0px;
      }
    </style>
  </defs>
  <g id="Layer_1-2" data-name="Layer 1">
    <path class="cls-1" d="M11.38,0C5.09,0,0,5.09,0,11.38s5.09,11.38,11.38,11.38,11.38-5.09,11.38-11.38C22.74,5.1,17.65,0,11.38,0ZM11.38,21c-5.32,0-9.62-4.31-9.62-9.62S6.06,1.75,11.38,1.75s9.62,4.31,9.62,9.62c0,5.31-4.31,9.62-9.62,9.62ZM6.12,9.19c0-.72.59-1.31,1.31-1.31s1.31.59,1.31,1.31-.59,1.31-1.31,1.31-1.31-.59-1.31-1.31ZM16.62,9.19c0,.72-.59,1.31-1.31,1.31s-1.31-.59-1.31-1.31.59-1.31,1.31-1.31,1.31.59,1.31,1.31ZM13.37,14.38c0,1.1-.9,2-2,2s-2-.9-2-2,.9-2,2-2,2,.9,2,2Z"/>
  </g>
</svg>